<svg id="Capa_1" enable-background="new 0 0 512 512" height="512" viewBox="0 0 512 512" width="512" xmlns="http://www.w3.org/2000/svg"><path d="m416.5 413.458h30v29.75h-30z"/><path d="m159 233.333v-59.712h-42.625v-17.5c0-11.028 8.972-20 20-20h272.625c27.57 0 50-22.43 50-50s-22.43-50-50-50h-272.625c-11.028 0-20-8.972-20-20v-16.121h-30v16.122c0 27.57 22.43 50 50 50h272.625c11.028 0 20 8.972 20 20s-8.972 20-20 20h-272.625c-27.57 0-50 22.43-50 50v17.5h-42.625v59.712h-43.75v278.666h512v-278.667zm-85.25-29.711h55.25v29.712h-55.25zm408.25 278.378h-452v-218.667h452z"/><path d="m65.5 305.458h30v29.75h-30z"/><path d="m124 305.458h30v29.75h-30z"/><path d="m182.5 305.458h30v29.75h-30z"/><path d="m241 305.458h30v29.75h-30z"/><path d="m299.5 305.458h30v29.75h-30z"/><path d="m358 305.458h30v29.75h-30z"/><path d="m416.5 305.458h30v29.75h-30z"/><path d="m65.5 359.458h30v29.75h-30z"/><path d="m124 359.458h30v29.75h-30z"/><path d="m182.5 359.458h30v29.75h-30z"/><path d="m241 359.458h30v29.75h-30z"/><path d="m299.5 359.458h30v29.75h-30z"/><path d="m358 359.458h30v29.75h-30z"/><path d="m416.5 359.458h30v29.75h-30z"/><path d="m65.5 413.458h30v29.75h-30z"/><path d="m124.127 413.333h148.563v30h-148.563z"/><path d="m358 413.458h30v29.75h-30z"/><path d="m299.5 413.458h30v29.75h-30z"/></svg>