<?xml version="1.0" encoding="utf-8"?>
<!-- Generator: Adobe Illustrator 16.0.0, SVG Export Plug-In . SVG Version: 6.00 Build 0)  -->
<!DOCTYPE svg PUBLIC "-//W3C//DTD SVG 1.1//EN" "http://www.w3.org/Graphics/SVG/1.1/DTD/svg11.dtd">
<svg version="1.1" id="Capa_1" xmlns="http://www.w3.org/2000/svg" xmlns:xlink="http://www.w3.org/1999/xlink" x="0px" y="0px"
	 width="595.279px" height="593.445px" viewBox="0 0 595.279 593.445" enable-background="new 0 0 595.279 593.445"
	 xml:space="preserve">
<g>
	<g>
		<g>
			<path fill="#323232" d="M72.649,563.68c-11.942-0.035-23.179-4.695-31.64-13.122c-17.583-17.514-17.639-46.067-0.124-63.652
				l58.6-58.599l26.588-26.366l-23.308-23.308c-5.306-5.336-5.306-14.015-0.004-19.349l26.725-26.723
				c2.592-2.577,6.026-3.994,9.676-3.994s7.084,1.417,9.672,3.99l8.128,8.128l36.617-40.432L38.272,160.964
				c-2.722-2.449-4.372-5.95-4.531-9.605L28.116,38.984c-0.21-3.869,1.24-7.669,3.98-10.418c2.594-2.584,6.033-4.004,9.687-4.004
				c0.248,0,0.497,0.006,0.745,0.02l112.377,5.508c3.644,0.158,7.144,1.808,9.591,4.527l133.166,148.696l132.929-149.04
				c2.454-2.726,5.954-4.376,9.609-4.534l112.377-5.507c0.238-0.013,0.486-0.02,0.734-0.02c3.654,0,7.093,1.42,9.681,3.999
				c2.746,2.755,4.196,6.555,3.985,10.433l-5.626,112.378c-0.158,3.643-1.808,7.143-4.526,9.59L401.741,299.444l36.753,41.114
				l8.113-8.114c2.592-2.577,6.027-3.994,9.677-3.994s7.084,1.417,9.672,3.99l26.724,26.725c5.308,5.337,5.308,14.015,0.004,19.349
				l-23.317,23.316l26.479,26.479l37.622,37.856l20.605,20.137l0.494,0.493c8.451,8.588,13.043,19.928,12.947,31.95
				s-4.867,23.287-13.436,31.72c-8.473,8.338-19.684,12.93-31.567,12.93c-0.001,0-0.001,0-0.003,0
				c-12.159,0-23.553-4.772-32.082-13.437l-84.593-84.595l-23.314,23.312c-2.592,2.577-6.026,3.995-9.676,3.995
				s-7.084-1.418-9.672-3.991l-26.724-26.724c-5.307-5.337-5.307-14.015-0.004-19.349l8.116-8.116l-46.895-41.819l-46.979,41.895
				l7.77,8.666c5.265,5.336,5.252,13.985-0.038,19.307l-26.724,26.723c-2.591,2.577-6.027,3.995-9.676,3.995
				c-3.65,0-7.085-1.418-9.672-3.991l-23.317-23.316l-84.605,84.604c-8.438,8.464-19.671,13.126-31.628,13.126H72.649z
				 M60.749,506.1c-2.556,2.87-4.118,6.556-4.401,10.386c-0.348,4.681,1.147,9.217,4.211,12.771
				c3.048,3.537,7.284,5.682,11.935,6.046c4.617-0.02,9.101-1.894,12.336-5.151l10.727-10.108l-24.534-24.22L60.749,506.1z
				 M508.853,530.147c3.337,3.18,7.758,4.949,12.415,4.949c4.656,0,9.077-1.77,12.448-4.982c0.382-0.365,0.879-0.553,1.381-0.553
				c0.165,0,0.331,0.021,0.493,0.062c5.543-6.905,5.074-17.137-1.316-23.479l-10.347-10.348l-25.343,24.081L508.853,530.147z
				 M114.89,500.178l18.997-17.881l-24.786-24.786l-18.386,18.387L114.89,500.178z M478.843,500.139l24.83-24.83l-18.384-18.385
				l-24.829,24.83L478.843,500.139z M441.916,462.883l24.841-24.842l-16.78-16.781l-25.677,24.31L441.916,462.883z M152.743,462.329
				l17.353-16.249l-24.828-24.827l-17.353,16.249L152.743,462.329z M372.74,459.662l22.379-23.812l45.303-43.781l23.289-23.288
				l-7.25-7.25l-90.926,90.924L372.74,459.662z M154.467,391.746l67.477,67.476l7.858-6.759l-90.815-90.815l-7.253,7.254
				L154.467,391.746z M363.919,415.132l17.873-17.874l-42.173-42.172l-22.029,18.547L363.919,415.132z M230.713,414.553
				l142.502-126.374l161.331-144.17l4.538-91.533l-91.539,4.537L222.39,307.187l-46.783,52.26l17.873,17.874l194.244-194.244
				c0.442-0.509,0.927-0.992,1.443-1.435c2.486-2.129,5.654-3.301,8.92-3.301c4.017,0,7.816,1.749,10.427,4.797
				c4.902,5.725,4.254,14.362-1.437,19.292L212.833,396.672L230.713,414.553z M400.911,377.906l17.872-17.872l-37.835-42.223
				l-21.191,18.94L400.911,377.906z M211.949,279.231l24.366-27.438l-49.398-48.942c-0.039-0.039-0.076-0.079-0.111-0.12
				c-4.429-5.171-4.429-12.677,0-17.848c2.61-3.047,6.41-4.795,10.426-4.795c3.267,0,6.434,1.171,8.917,3.299
				c0.039,0.034,0.077,0.068,0.113,0.105l47.727,47.727l24.584-27.446L147.193,56.896L55.66,52.359l4.536,91.532L211.949,279.231z"
				/>
			<path fill="#323232" d="M553.312,26.212c3.091,0,6.068,1.222,8.27,3.416c2.345,2.353,3.58,5.59,3.399,8.907l-5.626,112.387
				c-0.137,3.142-1.529,6.099-3.867,8.204L398.918,299.287l39.495,44.182l9.608-9.61c2.286-2.272,5.274-3.408,8.263-3.408
				s5.977,1.136,8.262,3.408l26.72,26.721c4.545,4.57,4.545,11.953,0,16.524l-24.728,24.727l27.893,27.893l37.617,37.853
				l20.627,20.157c0.162,0.16,0.323,0.322,0.484,0.484c16.662,16.93,16.445,44.162-0.484,60.822
				c-8.377,8.244-19.273,12.355-30.166,12.355c-11.122,0-22.239-4.288-30.657-12.84l-20.392-20.393l-37.735-37.735l-27.892-27.892
				l-24.729,24.727c-2.285,2.272-5.273,3.408-8.262,3.408s-5.977-1.136-8.262-3.408l-26.72-26.72c-4.544-4.57-4.544-11.953,0-16.524
				l9.61-9.609l-49.807-44.416l-49.807,44.416l9.141,10.195c4.544,4.57,4.544,11.955,0,16.525l-26.72,26.719
				c-2.285,2.272-5.274,3.409-8.262,3.409s-5.977-1.137-8.262-3.409l-24.727-24.727l-86.02,86.019
				c-8.007,8.031-18.878,12.54-30.214,12.54c-0.046,0-0.093,0-0.139,0c-11.337-0.033-22.202-4.539-30.234-12.539
				c-16.829-16.762-16.881-43.994-0.119-60.824l58.597-58.596l28.009-27.774l-24.728-24.728c-4.544-4.57-4.544-11.953,0-16.525
				l26.721-26.719c2.285-2.272,5.273-3.408,8.262-3.408s5.977,1.136,8.262,3.408l9.61,9.609l39.377-43.479L39.607,159.475
				c-2.339-2.105-3.732-5.061-3.868-8.203L30.114,38.884c-0.18-3.316,1.055-6.554,3.399-8.907c2.202-2.194,5.178-3.417,8.27-3.416
				c0.212,0,0.424,0.005,0.637,0.017l112.388,5.508c3.142,0.136,6.098,1.529,8.203,3.868l134.655,150.359l134.418-150.71
				c2.105-2.338,5.062-3.731,8.204-3.867l112.388-5.508C552.888,26.217,553.1,26.212,553.312,26.212 M212.114,282.058l26.955-30.353
				l-50.744-50.275c-3.758-4.388-3.758-10.858,0-15.246c2.318-2.707,5.602-4.097,8.907-4.097c2.697,0,5.408,0.926,7.617,2.818
				l49.221,49.221l27.188-30.353L148.127,54.94l-94.574-4.688l4.687,94.574L212.114,282.058 M193.48,380.148l195.71-195.711
				c0.394-0.459,0.822-0.887,1.279-1.279c2.21-1.892,4.92-2.818,7.617-2.818c3.305,0,6.59,1.391,8.907,4.098
				c4.21,4.916,3.638,12.314-1.278,16.524l-195.712,195.71l20.626,20.627l143.912-127.623l161.96-144.732l4.688-94.574
				l-94.575,4.688L220.904,305.849l-48.049,53.674L193.48,380.148 M400.911,380.734l20.625-20.625l-40.432-45.12l-24.258,21.681
				L400.911,380.734 M363.995,417.885l20.625-20.627l-44.885-44.885l-25.195,21.213L363.995,417.885 M372.784,462.535l23.791-25.314
				l45.235-43.713l24.728-24.727l-10.078-10.078l-93.754,93.753L372.784,462.535 M221.842,461.948l10.898-9.375l-93.754-93.754
				l-10.079,10.079l24.142,24.258l44.181,44.182L221.842,461.948 M441.929,465.699l27.656-27.658l-19.57-19.571l-28.596,27.072
				L441.929,465.699 M152.698,465.112l20.273-18.985l-27.657-27.656l-20.274,18.984L152.698,465.112 M478.843,502.967l27.658-27.658
				l-21.212-21.213l-27.657,27.658L478.843,502.967 M114.844,502.967l21.915-20.627l-27.658-27.657L87.89,475.895L114.844,502.967
				 M521.267,537.098c4.979,0,9.958-1.846,13.829-5.536l0.938,0.585c7.377-7.708,7.221-19.906-0.352-27.422l-11.721-11.721
				l-28.243,26.838l11.72,11.72C511.31,535.252,516.288,537.098,521.267,537.098 M72.449,537.303c5.181,0,10.147-2.065,13.8-5.741
				l12.188-11.485l-27.424-27.072l-11.719,11.721c-2.884,3.219-4.623,7.303-4.942,11.613c-0.802,10.779,7.29,20.166,18.067,20.965
				C72.43,537.303,72.44,537.303,72.449,537.303 M553.312,22.212L553.312,22.212c-0.284,0-0.568,0.007-0.854,0.023l-112.366,5.507
				c-4.166,0.181-8.176,2.071-10.981,5.186L297.659,180.312L165.99,33.286c-2.812-3.123-6.822-5.014-11.009-5.195L42.615,22.583
				c-0.263-0.014-0.548-0.022-0.831-0.022c-4.188,0-8.127,1.627-11.094,4.582c-3.15,3.161-4.812,7.516-4.57,11.958l5.624,112.37
				c0.181,4.162,2.072,8.172,5.188,10.977l153.816,137.951l-33.857,37.384l-6.638-6.638c-2.973-2.956-6.909-4.579-11.09-4.579
				s-8.117,1.623-11.082,4.571l-26.729,26.727c-6.083,6.121-6.083,16.064-0.008,22.174l21.896,21.896l-25.156,24.946l-58.608,58.607
				c-18.299,18.372-18.24,48.195,0.124,66.486c8.837,8.802,20.572,13.668,33.045,13.705h0.151c12.492,0,24.228-4.871,33.046-13.716
				l83.187-83.186l21.898,21.897c2.973,2.957,6.909,4.581,11.091,4.581s8.118-1.624,11.083-4.573l26.728-26.727
				c6.058-6.093,6.084-15.978,0.086-22.095l-6.399-7.138l44.151-39.373l43.984,39.223l-6.615,6.615
				c-6.084,6.119-6.083,16.062-0.009,22.173l26.729,26.728c2.973,2.957,6.908,4.58,11.09,4.58s8.117-1.623,11.082-4.572
				l21.908-21.905l25.063,25.062l37.735,37.735l20.392,20.393c8.886,9.028,20.785,14.012,33.485,14.012
				c12.413,0,24.123-4.796,32.972-13.505c8.949-8.807,13.934-20.572,14.033-33.129c0.101-12.557-4.695-24.4-13.504-33.35
				c-0.191-0.193-0.357-0.359-0.523-0.524l-20.623-20.153l-37.596-37.83l-25.072-25.073l21.898-21.898
				c6.085-6.12,6.085-16.063,0.008-22.173l-26.728-26.729c-2.973-2.956-6.908-4.58-11.09-4.58s-8.117,1.624-11.083,4.571
				l-6.626,6.627l-34.011-38.048l153.591-137.496c3.123-2.812,5.014-6.822,5.195-11.01l5.625-112.361
				c0.241-4.425-1.421-8.78-4.562-11.931C561.439,23.839,557.499,22.212,553.312,22.212L553.312,22.212z M62.152,142.955
				l-4.385-88.489l88.493,4.386l129.629,144.92l-21.979,24.538l-46.233-46.233c-0.073-0.073-0.148-0.143-0.227-0.209
				c-2.846-2.437-6.475-3.78-10.218-3.78c-4.601,0-8.955,2.002-11.945,5.495c-5.075,5.924-5.075,14.524,0,20.449
				c0.071,0.083,0.146,0.163,0.223,0.239l48.053,47.609l-21.778,24.524L62.152,142.955L62.152,142.955z M448.476,58.969
				l88.501-4.386l-4.387,88.492L371.877,286.693L230.795,411.807l-15.134-15.135l192.782-192.781
				c6.469-5.656,7.192-15.514,1.59-22.055c-2.99-3.492-7.344-5.496-11.944-5.496c-3.743,0-7.373,1.342-10.22,3.78
				c-0.575,0.494-1.113,1.026-1.606,1.589L193.48,374.492l-15.121-15.121l45.524-50.854L448.476,58.969L448.476,58.969z
				 M362.667,336.833l18.124-16.199l35.239,39.325l-15.119,15.119L362.667,336.833L362.667,336.833z M320.64,373.68l18.863-15.882
				l39.46,39.46l-15.119,15.121L320.64,373.68L320.64,373.68z M368.363,452.456l88.098-88.096l4.421,4.421l-21.875,21.875
				l-45.21,43.689c-0.047,0.044-0.092,0.09-0.136,0.137l-20.965,22.308L368.363,452.456L368.363,452.456z M134.557,368.905
				l4.429-4.429l87.876,87.876l-4.816,4.144l-21.988-21.986l-44.18-44.182L134.557,368.905L134.557,368.905z M130.792,437.55
				l14.431-13.514l21.997,21.996l-14.431,13.515L130.792,437.55L130.792,437.55z M427.181,445.596l22.758-21.545l13.99,13.99
				l-22.024,22.025L427.181,445.596L427.181,445.596z M463.288,481.754l22.001-22.001l15.555,15.556l-22.001,22.001L463.288,481.754
				L463.288,481.754z M93.541,475.9l15.561-15.561l21.914,21.913l-16.081,15.136L93.541,475.9L93.541,475.9z M501.448,519.915
				l22.442-21.325l8.964,8.963c5.436,5.396,6.045,13.948,1.763,20.037c-0.835,0.101-1.64,0.464-2.281,1.076
				c-2.997,2.857-6.929,4.432-11.069,4.432c-4.124,0-8.041-1.562-11.034-4.398L501.448,519.915L501.448,519.915z M62.206,507.471
				l8.827-8.828l21.644,21.366l-9.17,8.642c-0.032,0.03-0.063,0.061-0.094,0.092c-2.852,2.869-6.796,4.527-10.841,4.561
				c-4.09-0.341-7.813-2.237-10.497-5.352c-2.715-3.15-4.041-7.169-3.732-11.316C58.592,513.258,59.963,510.008,62.206,507.471
				L62.206,507.471z"/>
		</g>
	</g>
</g>
</svg>
