<?xml version="1.0" encoding="utf-8"?>
<!-- Generator: Adobe Illustrator 16.0.0, SVG Export Plug-In . SVG Version: 6.00 Build 0)  -->
<!DOCTYPE svg PUBLIC "-//W3C//DTD SVG 1.1//EN" "http://www.w3.org/Graphics/SVG/1.1/DTD/svg11.dtd">
<svg version="1.1" id="Layer_1" xmlns="http://www.w3.org/2000/svg" xmlns:xlink="http://www.w3.org/1999/xlink" x="0px" y="0px"
	 width="52px" height="52px" viewBox="0 0 52 52" enable-background="new 0 0 52 52" xml:space="preserve">
<g display="none">
	<path display="inline" fill="none" stroke="#000000" stroke-width="2.5" stroke-linecap="round" stroke-linejoin="round" d="
		M36.834,45.5v-4.334c0-4.785-3.881-8.666-8.668-8.666H10.833c-4.787,0-8.667,3.881-8.667,8.666V45.5"/>
	
		<circle display="inline" fill="none" stroke="#000000" stroke-width="2.5" stroke-linecap="round" stroke-linejoin="round" cx="19.5" cy="15.167" r="8.667"/>
</g>
<path fill="none" stroke="#323232" stroke-width="5" stroke-linecap="round" stroke-linejoin="round" d="M47.334,40.895v-3.804
	c-0.004-3.468-2.349-6.494-5.706-7.362"/>
<path fill="none" stroke="#323232" stroke-width="5" stroke-linecap="round" stroke-linejoin="round" d="M34.016,6.905
	c4.073,1.041,6.527,5.187,5.486,9.257c-0.69,2.692-2.792,4.794-5.486,5.484"/>
<g>
	<path fill="none" stroke="#323232" stroke-width="5" stroke-linecap="round" stroke-linejoin="round" d="M35.816,40.821v-3.806
		c0-4.2-3.406-7.608-7.61-7.608H12.991c-4.203,0-7.609,3.408-7.609,7.608v3.806"/>
	
		<circle fill="none" stroke="#323232" stroke-width="5" stroke-linecap="round" stroke-linejoin="round" cx="20.599" cy="14.191" r="7.609"/>
</g>
</svg>
