<?xml version="1.0" encoding="utf-8"?>
<!-- Generator: Adobe Illustrator 16.0.0, SVG Export Plug-In . SVG Version: 6.00 Build 0)  -->
<!DOCTYPE svg PUBLIC "-//W3C//DTD SVG 1.1//EN" "http://www.w3.org/Graphics/SVG/1.1/DTD/svg11.dtd">
<svg version="1.1" id="Layer_1" xmlns="http://www.w3.org/2000/svg" xmlns:xlink="http://www.w3.org/1999/xlink" x="0px" y="0px"
	 width="120.25px" height="25.453px" viewBox="0 0 120.25 25.453" enable-background="new 0 0 120.25 25.453" xml:space="preserve">
<g display="none">
	
		<text transform="matrix(1 0 0 1 0 21.7686)" display="inline" fill="#464646" font-family="'MuseoSansRounded-900'" font-size="25.354">Noob</text>
	
		<text transform="matrix(1 0 0 1 66.7549 21.5713)" display="inline" fill="#464646" font-family="'MuseoSansRounded-1000'" font-size="15.3292">.Typing</text>
</g>
<g>
	<g enable-background="new    ">
		<path fill="#323232" d="M64.912,18.832c0-0.6,0.316-0.916,0.916-0.916h0.898c0.6,0,0.916,0.316,0.916,0.916v0.898
			c0,0.6-0.316,0.916-0.916,0.916h-0.898c-0.6,0-0.916-0.316-0.916-0.916V18.832z"/>
		<path fill="#323232" d="M70.971,11.241h-2.696c-0.6,0-0.915-0.316-0.915-0.916V9.659c0-0.6,0.315-0.916,0.915-0.916h8.307
			c0.6,0,0.916,0.316,0.916,0.916v0.666c0,0.6-0.316,0.916-0.916,0.916h-2.696v8.489c0,0.6-0.316,0.916-0.916,0.916h-1.082
			c-0.6,0-0.916-0.316-0.916-0.916V11.241z"/>
		<path fill="#323232" d="M77.478,21.712c0.134,0.033,0.3,0.083,0.499,0.083c0.517,0,0.982-0.416,1.183-0.915l0.166-0.399
			l-3.179-7.342c-0.283-0.633,0-1.065,0.698-1.065h1.299c0.55,0,0.882,0.25,1.049,0.749l1.015,3.196
			c0.15,0.466,0.316,1.332,0.316,1.332h0.033c0,0,0.167-0.816,0.283-1.282l0.866-3.213c0.149-0.532,0.483-0.782,1.032-0.782h1.215
			c0.666,0,0.966,0.416,0.732,1.049l-3.129,8.44c-0.717,1.914-2.215,2.58-3.58,2.58c-0.449,0-0.865-0.1-1.198-0.217
			c-0.55-0.183-0.683-0.666-0.449-1.198l0.216-0.483C76.778,21.729,77.128,21.646,77.478,21.712z"/>
		<path fill="#323232" d="M85.766,12.988c0-0.599,0.316-0.915,0.916-0.915h0.748c0.6,0,0.916,0.316,0.916,0.749v0.183
			c0,0.084-0.017,0.167-0.017,0.167h0.033c0,0,0.782-1.299,2.597-1.299c2.331,0,3.863,1.831,3.863,4.495
			c0,2.714-1.715,4.479-3.996,4.479c-1.548,0-2.181-0.982-2.181-0.982h-0.033c0,0,0.033,0.3,0.033,0.732v2.464
			c0,0.599-0.316,0.915-0.915,0.915h-1.049c-0.6,0-0.916-0.316-0.916-0.915V12.988z M90.244,18.466c0.898,0,1.682-0.732,1.682-2.048
			c0-1.282-0.684-2.114-1.682-2.114c-0.866,0-1.682,0.633-1.682,2.114C88.562,17.45,89.111,18.466,90.244,18.466z"/>
		<path fill="#323232" d="M96.066,12.988c0-0.599,0.316-0.915,0.916-0.915h1.049c0.6,0,0.916,0.316,0.916,0.915v6.742
			c0,0.6-0.316,0.916-0.916,0.916h-1.049c-0.6,0-0.916-0.316-0.916-0.916V12.988z M96.1,10.075V9.659c0-0.6,0.316-0.916,0.916-0.916
			h0.982c0.6,0,0.916,0.316,0.916,0.916v0.416c0,0.6-0.316,0.916-0.916,0.916h-0.982C96.416,10.991,96.1,10.675,96.1,10.075z"/>
		<path fill="#323232" d="M100.644,12.988c0-0.599,0.316-0.915,0.915-0.915h0.933c0.6,0,0.899,0.316,0.899,0.915v0.15
			c0,0.083-0.018,0.216-0.018,0.216h0.033c0.4-0.665,1.216-1.481,2.73-1.481c1.731,0,3.08,0.8,3.08,3.213v4.645
			c0,0.6-0.316,0.916-0.916,0.916h-1.049c-0.599,0-0.915-0.316-0.915-0.916v-4.111c0-0.799-0.316-1.132-0.949-1.132
			c-1.282,0-1.864,1.065-1.864,2.28v2.963c0,0.6-0.316,0.916-0.916,0.916h-1.049c-0.599,0-0.915-0.316-0.915-0.916V12.988z"/>
		<path fill="#323232" d="M112.843,21.512c0.417,0.134,0.866,0.233,1.532,0.233c1.082,0,2.014-0.383,2.014-1.648v-0.433
			c0-0.1,0.017-0.316,0.017-0.316h-0.033c-0.466,0.683-1.082,1.049-2.098,1.049c-2.63,0-3.912-2.114-3.912-4.312
			c0-2.181,1.249-4.212,3.929-4.212c1.832,0,2.348,1.115,2.348,1.115h0.033c0,0-0.017-0.066-0.017-0.166v-0.033
			c0-0.399,0.316-0.716,0.915-0.716h0.783c0.6,0,0.915,0.316,0.915,0.915v6.876c0,3.13-2.547,4.278-4.728,4.278
			c-0.999,0-2.031-0.2-2.547-0.416c-0.566-0.233-0.716-0.6-0.5-1.183l0.184-0.499C111.895,21.479,112.227,21.312,112.843,21.512z
			 M116.455,16.118c0-1.515-0.799-1.848-1.664-1.848c-1.016,0-1.531,0.732-1.531,1.715c0,1.065,0.498,2.015,1.647,2.015
			C115.656,18,116.455,17.616,116.455,16.118z"/>
	</g>
	<g>
		<path fill="#333333" d="M22.888,9.335c3.985,0,7.163,2.664,7.163,6.624c0,3.936-3.178,6.552-7.138,6.552s-7.138-2.616-7.138-6.552
			C15.774,11.999,18.953,9.335,22.888,9.335z M22.913,18.99c1.54,0,2.86-1.149,2.86-3.031c0-1.907-1.32-3.104-2.86-3.104
			s-2.86,1.197-2.86,3.104C20.052,17.841,21.373,18.99,22.913,18.99z"/>
		<circle fill="#333333" cx="23.955" cy="16.602" r="1.975"/>
	</g>
	<g>
		<path fill="#333333" d="M38.484,9.335c3.984,0,7.162,2.664,7.162,6.624c0,3.936-3.178,6.552-7.138,6.552
			c-3.959,0-7.138-2.616-7.138-6.552C31.371,11.999,34.549,9.335,38.484,9.335z M38.508,18.99c1.541,0,2.86-1.149,2.86-3.031
			c0-1.907-1.319-3.104-2.86-3.104c-1.54,0-2.86,1.197-2.86,3.104C35.648,17.841,36.968,18.99,38.508,18.99z"/>
		<circle fill="#333333" cx="39.552" cy="16.602" r="1.975"/>
	</g>
	<path fill="#333333" d="M10.905,21.512c0.401,0.703,0.952,0.715,1.854,0.715h0.827c1.252,0,1.704-0.52,1.203-1.674
		c-1.253-3.031-1.93-6.013-1.93-9.119c0-2.782,0.627-5.63,1.805-8.261c0.551-1.153,0.125-1.946-1.178-1.946h-0.727
		c-0.902,0-1.528,0.381-1.979,1.183c-1.357,2.374-2.211,4.985-2.442,7.662L5.609,5.31C5.233,4.66,4.733,4.227,3.956,4.227H2
		c-0.902,0-1.375,0.831-1.375,1.733v15.162c0,0.899,0.473,1.104,1.375,1.104h1.63c0.902,0,0.995-0.205,0.995-1.104v-6.968
		c0-1.128,0.183-2.928,0.183-2.928h0.05c0,0,0.802,1.814,1.503,2.992"/>
	<g>
		<path fill="#323232" d="M56.687,9.507c3.985,0,7.163,2.664,7.163,6.624c0,3.938-3.178,6.553-7.138,6.553
			c-3.961,0-7.139-2.615-7.139-6.553C49.573,12.171,52.751,9.507,56.687,9.507z M56.712,19.162c1.539,0,2.86-1.148,2.86-3.031
			c0-1.904-1.321-3.104-2.86-3.104c-1.541,0-2.86,1.198-2.86,3.104C53.852,18.014,55.171,19.162,56.712,19.162z"/>
		<g>
			<g>
				<path fill="#323232" d="M48.927,11.578c0-2.782-0.601-5.613-1.804-8.245c-0.552-1.153-0.176-1.93,1.077-1.93h0.827
					c0.901,0,1.528,0.301,1.979,1.103c1.629,2.807,2.506,5.889,2.506,9.096c0,3.785-0.927,7.192-2.532,10.048
					c-0.451,0.775-1.053,1.104-1.929,1.104h-0.827c-1.278,0-1.678-0.802-1.152-2.029C48.25,17.743,48.927,14.635,48.927,11.578z"/>
			</g>
		</g>
	</g>
</g>
</svg>
