<?xml version="1.0" encoding="utf-8"?>
<!-- Generator: Adobe Illustrator 16.0.0, SVG Export Plug-In . SVG Version: 6.00 Build 0)  -->
<!DOCTYPE svg PUBLIC "-//W3C//DTD SVG 1.1//EN" "http://www.w3.org/Graphics/SVG/1.1/DTD/svg11.dtd">
<svg version="1.1" id="Layer_1" xmlns="http://www.w3.org/2000/svg" xmlns:xlink="http://www.w3.org/1999/xlink" x="0px" y="0px"
	 width="120.25px" height="25.453px" viewBox="0 0 120.25 25.453" enable-background="new 0 0 120.25 25.453" xml:space="preserve">
<g>
	<path fill="#323232" d="M65.812,19.383c0-0.6,0.315-0.914,0.914-0.914h0.896c0.599,0,0.914,0.314,0.914,0.914v0.896
		c0,0.599-0.315,0.916-0.914,0.916h-0.896c-0.599,0-0.914-0.317-0.914-0.916V19.383z"/>
	<g>
		<path fill="#323232" d="M71.329,11.805h-2.69c-0.601,0-0.915-0.316-0.915-0.914v-0.666c0-0.598,0.314-0.914,0.915-0.914h8.292
			c0.598,0,0.914,0.315,0.914,0.914v0.666c0,0.598-0.316,0.914-0.914,0.914h-2.691v8.474c0,0.599-0.315,0.916-0.914,0.916h-1.081
			c-0.599,0-0.914-0.317-0.914-0.916L71.329,11.805L71.329,11.805z"/>
		<path fill="#323232" d="M77.824,22.258c0.133,0.033,0.299,0.083,0.498,0.083c0.517,0,0.979-0.415,1.181-0.914l0.166-0.398
			l-3.174-7.329c-0.284-0.632,0-1.062,0.698-1.062h1.295c0.549,0,0.881,0.25,1.049,0.748l1.013,3.191
			c0.148,0.463,0.315,1.329,0.315,1.329h0.032c0,0,0.167-0.815,0.283-1.282l0.864-3.205c0.149-0.531,0.481-0.781,1.03-0.781h1.213
			c0.665,0,0.963,0.416,0.73,1.047l-3.124,8.425c-0.716,1.911-2.21,2.575-3.572,2.575c-0.448,0-0.863-0.1-1.198-0.217
			c-0.546-0.182-0.679-0.664-0.446-1.194l0.214-0.483C77.124,22.275,77.475,22.192,77.824,22.258z"/>
		<path fill="#323232" d="M86.098,13.549c0-0.598,0.315-0.913,0.914-0.913h0.748c0.596,0,0.914,0.315,0.914,0.747v0.184
			c0,0.083-0.018,0.166-0.018,0.166h0.032c0,0,0.781-1.297,2.595-1.297c2.324,0,3.854,1.828,3.854,4.488
			c0,2.709-1.712,4.471-3.989,4.471c-1.546,0-2.177-0.98-2.177-0.98h-0.034c0,0,0.034,0.3,0.034,0.73v2.459
			c0,0.6-0.315,0.914-0.913,0.914h-1.047c-0.599,0-0.914-0.314-0.914-0.914V13.549L86.098,13.549z M90.568,19.018
			c0.896,0,1.678-0.73,1.678-2.045c0-1.28-0.681-2.109-1.678-2.109c-0.866,0-1.68,0.631-1.68,2.109
			C88.889,18.004,89.436,19.018,90.568,19.018z"/>
		<path fill="#323232" d="M96.381,13.549c0-0.598,0.314-0.913,0.913-0.913h1.047c0.6,0,0.914,0.315,0.914,0.913v6.73
			c0,0.599-0.314,0.916-0.914,0.916h-1.047c-0.599,0-0.913-0.317-0.913-0.916V13.549z M96.413,10.641v-0.416
			c0-0.598,0.314-0.914,0.914-0.914h0.981c0.599,0,0.915,0.315,0.915,0.914v0.416c0,0.599-0.316,0.915-0.915,0.915h-0.981
			C96.728,11.556,96.413,11.24,96.413,10.641z"/>
		<path fill="#323232" d="M100.95,13.549c0-0.598,0.315-0.913,0.912-0.913h0.932c0.6,0,0.897,0.315,0.897,0.913v0.15
			c0,0.082-0.018,0.215-0.018,0.215h0.033c0.4-0.664,1.214-1.479,2.726-1.479c1.728,0,3.073,0.799,3.073,3.208v4.636
			c0,0.6-0.315,0.916-0.915,0.916h-1.047c-0.597,0-0.911-0.316-0.911-0.916v-4.103c0-0.798-0.317-1.13-0.948-1.13
			c-1.28,0-1.861,1.062-1.861,2.275v2.957c0,0.6-0.316,0.916-0.913,0.916h-1.048c-0.599,0-0.913-0.316-0.913-0.916L100.95,13.549
			L100.95,13.549z"/>
		<path fill="#323232" d="M113.126,22.059c0.417,0.134,0.865,0.232,1.531,0.232c1.08,0,2.01-0.383,2.01-1.645v-0.434
			c0-0.098,0.017-0.314,0.017-0.314h-0.032c-0.466,0.682-1.08,1.046-2.096,1.046c-2.624,0-3.904-2.109-3.904-4.304
			c0-2.178,1.246-4.205,3.922-4.205c1.828,0,2.344,1.113,2.344,1.113h0.034c0,0-0.017-0.066-0.017-0.166v-0.031
			c0-0.399,0.314-0.716,0.91-0.716h0.782c0.602,0,0.916,0.315,0.916,0.913v6.863c0,3.126-2.544,4.271-4.721,4.271
			c-0.997,0-2.028-0.2-2.544-0.415c-0.564-0.231-0.715-0.599-0.498-1.181l0.184-0.498C112.181,22.025,112.511,21.859,113.126,22.059
			z M116.733,16.674c0-1.512-0.797-1.846-1.662-1.846c-1.014,0-1.528,0.731-1.528,1.713c0,1.062,0.497,2.012,1.646,2.012
			C115.937,18.553,116.733,18.169,116.733,16.674z"/>
	</g>
	<g>
		<g>
			<path fill="#333333" d="M23.338,9.867c3.943,0,7.088,2.637,7.088,6.556c0,3.893-3.145,6.48-7.063,6.48s-7.063-2.588-7.063-6.48
				C16.299,12.503,19.443,9.867,23.338,9.867z M23.362,19.422c1.524,0,2.83-1.137,2.83-2.999c0-1.888-1.306-3.074-2.83-3.074
				s-2.831,1.187-2.831,3.074C20.532,18.285,21.838,19.422,23.362,19.422z"/>
			<circle fill="#333333" cx="24.395" cy="17.058" r="1.954"/>
		</g>
		<g>
			<path fill="#333333" d="M39.672,9.867c3.943,0,7.087,2.637,7.087,6.556c0,3.893-3.144,6.48-7.064,6.48
				c-3.918,0-7.063-2.588-7.063-6.48C32.632,12.503,35.777,9.867,39.672,9.867z M39.695,19.422c1.524,0,2.832-1.137,2.832-2.999
				c0-1.888-1.307-3.074-2.832-3.074c-1.523,0-2.83,1.187-2.83,3.074C36.865,18.285,38.172,19.422,39.695,19.422z"/>
			<circle fill="#333333" cx="40.729" cy="17.058" r="1.955"/>
		</g>
		<path fill="#333333" d="M11.93,22.146c0.397,0.696,0.942,1.081,1.836,1.081h0.817c1.24,0,1.687-0.834,1.19-1.974
			c-1.24-3.003-1.91-6.144-1.91-9.22c0-2.752,0.62-5.469,1.786-8.071c0.545-1.143,0.124-1.736-1.166-1.736h-0.718
			c-0.894,0-1.513,0.029-1.96,0.824c-1.342,2.348-2.188,4.618-2.417,7.266L6.689,5.551C6.318,4.904,5.822,4.227,5.054,4.227H3.12
			c-0.893,0-1.495,1.286-1.495,2.178v15.002c0,0.893,0.602,1.82,1.495,1.82h1.611c0.893,0,1.312-0.678,1.312-1.567L6.034,11.644
			c0,0,1.977,3.547,2.671,4.711L11.93,22.146z"/>
		<g>
			<path fill="#323232" d="M57.234,10.246c3.944,0,7.087,2.638,7.087,6.557c0,3.895-3.144,6.482-7.064,6.482
				c-3.918,0-7.063-2.588-7.063-6.482C50.194,12.884,53.339,10.246,57.234,10.246z M57.257,19.801c1.524,0,2.831-1.137,2.831-2.998
				c0-1.889-1.306-3.074-2.831-3.074c-1.522,0-2.828,1.186-2.828,3.074C54.429,18.664,55.735,19.801,57.257,19.801z"/>
			<g>
				<g>
					<path fill="#323232" d="M49.555,12.295c0-2.752-0.595-5.554-1.786-8.159c-0.544-1.139-0.173-1.91,1.066-1.91h0.82
						c0.891,0,1.512,0.3,1.958,1.092c1.612,2.777,2.479,5.827,2.479,9c0,3.746-0.917,7.121-2.504,9.947
						c-0.446,0.768-1.042,1.09-1.91,1.09h-0.818c-1.265,0-1.661-0.793-1.141-2.01C48.885,18.395,49.555,15.32,49.555,12.295z"/>
				</g>
			</g>
		</g>
	</g>
</g>
</svg>
