<?xml version="1.0" encoding="utf-8"?>
<!-- Generator: Adobe Illustrator 16.0.0, SVG Export Plug-In . SVG Version: 6.00 Build 0)  -->
<!DOCTYPE svg PUBLIC "-//W3C//DTD SVG 1.1//EN" "http://www.w3.org/Graphics/SVG/1.1/DTD/svg11.dtd">
<svg version="1.1" id="Layer_1" xmlns="http://www.w3.org/2000/svg" xmlns:xlink="http://www.w3.org/1999/xlink" x="0px" y="0px"
	 width="120.25px" height="25.453px" viewBox="0 0 120.25 25.453" enable-background="new 0 0 120.25 25.453" xml:space="preserve">
<g id="Layer_1_1_">
	
		<text transform="matrix(1 0 0 1 1.2007 18.3667)" display="none" fill="#A3412E" enable-background="new    " font-family="'Swiss721BT-Heavy'" font-size="21.4876">Typing </text>
	
		<text transform="matrix(1 0 0 1 82.4141 18.4272)" display="none" fill="#A3412E" enable-background="new    " font-family="'Swiss721BT-Heavy'" font-size="11.1465">.CODE</text>
	<g enable-background="new    ">
		<path fill="#666666" d="M0.606,21.798V3.771h4.993l3.402,5.923c0.555,0.963,1.081,1.918,1.579,2.863
			c0.498,0.946,0.966,1.881,1.407,2.803c-0.065-1.361-0.114-2.64-0.147-3.831c-0.033-1.191-0.049-2.24-0.049-3.146V3.771h4.454
			v18.026h-4.98l-3.537-6.094c-0.416-0.719-0.869-1.523-1.358-2.416c-0.489-0.895-1.008-1.86-1.554-2.896
			c0.09,1.175,0.155,2.269,0.196,3.279c0.041,1.012,0.062,1.91,0.062,2.693v5.434H0.606V21.798z"/>
		<path fill="#666666" d="M17.976,15.128c0-2.228,0.624-3.969,1.872-5.225c1.249-1.257,2.974-1.886,5.177-1.886
			c2.21,0,3.942,0.628,5.195,1.886c1.252,1.256,1.878,2.997,1.878,5.225c0,2.227-0.626,3.971-1.878,5.23
			c-1.252,1.262-2.984,1.893-5.195,1.893c-2.219,0-3.949-0.629-5.189-1.885C18.596,19.109,17.976,17.365,17.976,15.128z
			 M22.443,15.128c0,1.215,0.224,2.15,0.673,2.803c0.449,0.652,1.085,0.979,1.909,0.979c0.832,0,1.475-0.328,1.927-0.984
			c0.452-0.656,0.679-1.59,0.679-2.797c0-1.199-0.227-2.125-0.679-2.778c-0.452-0.652-1.095-0.979-1.927-0.979
			s-1.471,0.324-1.915,0.973C22.665,12.993,22.443,13.921,22.443,15.128z"/>
		<path fill="#666666" d="M32.812,15.128c0-2.228,0.624-3.969,1.872-5.225c1.249-1.257,2.974-1.886,5.177-1.886
			c2.21,0,3.942,0.628,5.195,1.886c1.252,1.256,1.878,2.997,1.878,5.225c0,2.227-0.626,3.971-1.878,5.23
			c-1.252,1.262-2.984,1.893-5.195,1.893c-2.219,0-3.949-0.629-5.189-1.885C33.432,19.109,32.812,17.365,32.812,15.128z
			 M37.279,15.128c0,1.215,0.224,2.15,0.673,2.803c0.449,0.652,1.085,0.979,1.909,0.979c0.832,0,1.475-0.328,1.927-0.984
			s0.679-1.59,0.679-2.797c0-1.199-0.227-2.125-0.679-2.778s-1.095-0.979-1.927-0.979s-1.471,0.324-1.915,0.973
			C37.501,12.993,37.279,13.921,37.279,15.128z"/>
		<path fill="#666666" d="M48.457,3.771h4.332v6.401c0.44-0.686,1.001-1.205,1.683-1.555c0.681-0.352,1.458-0.527,2.331-0.527
			c1.624,0,2.958,0.662,4.001,1.982c1.045,1.322,1.566,3.031,1.566,5.129c0,2.08-0.52,3.762-1.561,5.047
			c-1.042,1.285-2.393,1.928-4.058,1.928c-0.856,0-1.605-0.174-2.246-0.52c-0.641-0.348-1.205-0.885-1.695-1.609v1.75h-4.356
			L48.457,3.771L48.457,3.771z M57.855,15.005c0-1.084-0.225-1.941-0.673-2.569c-0.448-0.628-1.061-0.941-1.835-0.941
			c-0.824,0-1.464,0.307-1.921,0.924c-0.457,0.615-0.685,1.479-0.685,2.588c0,1.207,0.214,2.123,0.643,2.746
			c0.428,0.625,1.058,0.938,1.891,0.938c0.832,0,1.47-0.316,1.915-0.947C57.633,17.109,57.855,16.197,57.855,15.005z"/>
	</g>
	<g enable-background="new    ">
		<path fill="#666666" stroke="#666666" stroke-width="0.5" stroke-miterlimit="10" d="M64.188,20.845V18.15h2.834v2.695H64.188z"/>
		<path fill="#666666" stroke="#666666" stroke-width="0.5" stroke-miterlimit="10" d="M71.286,21.845v-10.99h-3.231V8.566h9.35
			v2.289h-3.23v10.99H71.286L71.286,21.845z"/>
		<path fill="#666666" stroke="#666666" stroke-width="0.5" stroke-miterlimit="10" d="M81.752,21.771
			c-0.279,0.775-0.521,1.314-0.72,1.615c-0.199,0.301-0.429,0.512-0.688,0.629c-0.193,0.08-0.431,0.141-0.709,0.176
			c-0.277,0.035-0.77,0.055-1.474,0.055h-0.72v-2.16h0.527c0.506,0,0.852-0.062,1.038-0.191c0.187-0.127,0.279-0.346,0.279-0.656
			c0-0.211-0.125-0.637-0.376-1.279l-0.03-0.068l-2.802-7.367h2.932l1.562,5.675l1.601-5.675h2.901L81.752,21.771z"/>
		<path fill="#666666" stroke="#666666" stroke-width="0.5" stroke-miterlimit="10" d="M86.001,24.183V12.521h2.728v1.111
			c0.306-0.456,0.658-0.79,1.06-1.008c0.401-0.217,0.869-0.324,1.405-0.324c1.041,0,1.888,0.402,2.537,1.206
			c0.651,0.805,0.978,1.854,0.978,3.15c0,1.312-0.327,2.383-0.979,3.213c-0.653,0.83-1.487,1.244-2.504,1.244
			c-0.547,0-1.033-0.111-1.459-0.334c-0.427-0.223-0.777-0.545-1.053-0.969v4.371h-2.712V24.183z M91.882,16.789
			c0-0.752-0.14-1.322-0.417-1.717c-0.277-0.393-0.678-0.59-1.197-0.59c-0.521,0-0.916,0.193-1.185,0.582s-0.401,0.963-0.401,1.725
			c0,0.691,0.144,1.229,0.43,1.605c0.285,0.379,0.687,0.566,1.201,0.566c0.489,0,0.875-0.193,1.152-0.582
			C91.742,17.992,91.882,17.462,91.882,16.789z"/>
		<path fill="#666666" stroke="#666666" stroke-width="0.5" stroke-miterlimit="10" d="M96.131,11.766V9.566h2.711v2.198
			L96.131,11.766L96.131,11.766z M96.131,20.845v-8.323h2.711v8.323H96.131z"/>
		<path fill="#666666" stroke="#666666" stroke-width="0.5" stroke-miterlimit="10" d="M100.756,20.845v-8.323h2.665v1.143
			c0.285-0.456,0.636-0.793,1.049-1.016s0.905-0.333,1.479-0.333c0.975,0,1.681,0.243,2.116,0.731
			c0.438,0.487,0.654,1.282,0.654,2.385v5.412h-2.726v-4.188c0-0.98-0.082-1.605-0.245-1.873s-0.465-0.4-0.903-0.4
			c-0.479,0-0.829,0.158-1.049,0.479c-0.22,0.318-0.329,0.828-0.329,1.527v4.455H100.756z"/>
		<path fill="#666666" stroke="#666666" stroke-width="0.5" stroke-miterlimit="10" d="M110.572,21.55h2.726
			c0.071,0.25,0.211,0.436,0.417,0.555c0.207,0.119,0.486,0.182,0.84,0.182c0.586,0,1-0.133,1.239-0.396
			c0.24-0.262,0.358-0.734,0.358-1.42v-0.881c-0.295,0.449-0.656,0.785-1.082,1.004c-0.428,0.219-0.924,0.328-1.489,0.328
			c-1.021,0-1.854-0.393-2.504-1.182c-0.647-0.789-0.974-1.816-0.974-3.082c0-1.297,0.324-2.348,0.974-3.15
			c0.649-0.803,1.493-1.208,2.534-1.208c0.576,0,1.076,0.107,1.5,0.322c0.425,0.215,0.803,0.551,1.134,1.01v-1.11h2.558v6.868
			c0,1.037-0.037,1.768-0.113,2.188c-0.078,0.422-0.205,0.771-0.383,1.053c-0.328,0.516-0.804,0.906-1.43,1.172
			c-0.625,0.266-1.374,0.398-2.247,0.398c-1.261,0-2.222-0.217-2.883-0.646C111.086,23.121,110.693,22.453,110.572,21.55z
			 M112.923,16.642c0,0.664,0.14,1.188,0.421,1.566c0.28,0.379,0.663,0.57,1.148,0.57c0.516,0,0.916-0.189,1.201-0.562
			c0.287-0.375,0.43-0.9,0.43-1.574c0-0.729-0.134-1.283-0.402-1.662c-0.268-0.377-0.662-0.564-1.183-0.564s-0.92,0.189-1.198,0.574
			C113.062,15.373,112.923,15.923,112.923,16.642z"/>
	</g>
</g>
</svg>
