<?xml version="1.0" encoding="utf-8"?>
<!-- Generator: Adobe Illustrator 16.0.0, SVG Export Plug-In . SVG Version: 6.00 Build 0)  -->
<!DOCTYPE svg PUBLIC "-//W3C//DTD SVG 1.1//EN" "http://www.w3.org/Graphics/SVG/1.1/DTD/svg11.dtd">
<svg version="1.1" id="Layer_1" xmlns="http://www.w3.org/2000/svg" xmlns:xlink="http://www.w3.org/1999/xlink" x="0px" y="0px"
	 width="120.25px" height="25.453px" viewBox="0 0 120.25 25.453" enable-background="new 0 0 120.25 25.453" xml:space="preserve">
<g display="none">
	
		<text transform="matrix(1 0 0 1 0 21.7686)" display="inline" fill="#464646" font-family="'MuseoSansRounded-900'" font-size="25.354">Noob</text>
	
		<text transform="matrix(1 0 0 1 66.7549 21.5713)" display="inline" fill="#464646" font-family="'MuseoSansRounded-1000'" font-size="15.3292">.Typing</text>
</g>
<g>
	<text transform="matrix(1 0 0 1 64.1797 20.6465)" fill="#323232" font-family="'MuseoSansRounded-900'" font-size="16.6425">.Typing</text>
	<g>
		<path fill="#333333" d="M22.888,9.335c3.985,0,7.163,2.664,7.163,6.624c0,3.936-3.178,6.552-7.138,6.552s-7.138-2.616-7.138-6.552
			C15.774,11.999,18.953,9.335,22.888,9.335z M22.913,18.99c1.54,0,2.86-1.149,2.86-3.031c0-1.907-1.32-3.104-2.86-3.104
			s-2.86,1.197-2.86,3.104C20.052,17.841,21.373,18.99,22.913,18.99z"/>
		<circle fill="#333333" cx="23.955" cy="16.602" r="1.975"/>
	</g>
	<g>
		<path fill="#333333" d="M38.484,9.335c3.984,0,7.162,2.664,7.162,6.624c0,3.936-3.178,6.552-7.138,6.552
			c-3.959,0-7.138-2.616-7.138-6.552C31.371,11.999,34.549,9.335,38.484,9.335z M38.508,18.99c1.541,0,2.86-1.149,2.86-3.031
			c0-1.907-1.319-3.104-2.86-3.104c-1.54,0-2.86,1.197-2.86,3.104C35.648,17.841,36.968,18.99,38.508,18.99z"/>
		<circle fill="#333333" cx="39.552" cy="16.602" r="1.975"/>
	</g>
	<path fill="#333333" d="M10.905,21.512c0.401,0.703,0.952,0.715,1.854,0.715h0.827c1.252,0,1.704-0.52,1.203-1.674
		c-1.253-3.031-1.93-6.013-1.93-9.119c0-2.782,0.627-5.63,1.805-8.261c0.551-1.153,0.125-1.946-1.178-1.946h-0.727
		c-0.902,0-1.528,0.381-1.979,1.183c-1.357,2.374-2.211,4.985-2.442,7.662L5.609,5.31C5.233,4.66,4.733,4.227,3.956,4.227H2
		c-0.902,0-1.375,0.831-1.375,1.733v15.162c0,0.899,0.473,1.104,1.375,1.104h1.63c0.902,0,0.995-0.205,0.995-1.104v-6.968
		c0-1.128,0.183-2.928,0.183-2.928h0.05c0,0,0.802,1.814,1.503,2.992"/>
	<g>
		<path fill="#323232" d="M56.687,9.507c3.985,0,7.163,2.664,7.163,6.624c0,3.938-3.178,6.553-7.138,6.553
			c-3.961,0-7.139-2.615-7.139-6.553C49.573,12.171,52.751,9.507,56.687,9.507z M56.712,19.162c1.539,0,2.86-1.148,2.86-3.031
			c0-1.904-1.321-3.104-2.86-3.104c-1.541,0-2.86,1.198-2.86,3.104C53.852,18.014,55.171,19.162,56.712,19.162z"/>
		<g>
			<g>
				<path fill="#323232" d="M48.927,11.578c0-2.782-0.601-5.613-1.804-8.245c-0.552-1.153-0.176-1.93,1.077-1.93h0.827
					c0.901,0,1.528,0.301,1.979,1.103c1.629,2.807,2.506,5.889,2.506,9.096c0,3.785-0.927,7.192-2.532,10.048
					c-0.451,0.776-1.053,1.104-1.929,1.104h-0.827c-1.278,0-1.678-0.802-1.152-2.029C48.25,17.743,48.927,14.635,48.927,11.578z"/>
			</g>
		</g>
	</g>
</g>
</svg>
