<?xml version="1.0" encoding="utf-8"?>
<!-- Generator: Adobe Illustrator 16.0.0, SVG Export Plug-In . SVG Version: 6.00 Build 0)  -->
<!DOCTYPE svg PUBLIC "-//W3C//DTD SVG 1.1//EN" "http://www.w3.org/Graphics/SVG/1.1/DTD/svg11.dtd">
<svg version="1.1" id="Layer_1" xmlns="http://www.w3.org/2000/svg" xmlns:xlink="http://www.w3.org/1999/xlink" x="0px" y="0px"
	 width="400px" height="200px" viewBox="0 0 400 200" enable-background="new 0 0 400 200" xml:space="preserve">
<g display="none">
	<path display="inline" fill="#464646" d="M143.162,75.182c24.052,0,43.235,16.084,43.235,39.988
		c0,23.758-19.183,39.547-43.088,39.547c-23.904,0-43.087-15.789-43.087-39.547C100.222,91.266,119.404,75.182,143.162,75.182z
		 M143.309,133.468c9.297,0,17.265-6.937,17.265-18.298c0-11.509-7.968-18.739-17.265-18.739c-9.296,0-17.264,7.23-17.264,18.739
		C126.044,126.531,134.013,133.468,143.309,133.468z"/>
	<path display="inline" fill="#464646" d="M231.881,75.182c24.053,0,43.235,16.084,43.235,39.988
		c0,23.758-19.183,39.547-43.089,39.547c-23.903,0-43.086-15.789-43.086-39.547C188.941,91.266,208.124,75.182,231.881,75.182z
		 M232.027,133.468c9.297,0,17.267-6.937,17.267-18.298c0-11.509-7.97-18.739-17.267-18.739c-9.295,0-17.264,7.23-17.264,18.739
		C214.766,126.531,222.732,133.468,232.027,133.468z"/>
	<g display="inline">
		<path fill="#464646" d="M302.089,101.742c0-17.117-3.983-34.086-11.51-49.875c-2.804-5.755-0.886-9.592,5.312-9.592h4.133
			c4.426,0,7.524,1.476,9.736,5.46c9.594,16.527,14.905,34.824,14.905,54.006c0,22.282-5.608,42.792-15.052,59.762
			c-2.215,3.836-5.166,5.46-9.592,5.46h-3.983c-6.347,0-8.411-3.984-5.757-10.033C297.957,139.075,302.089,120.335,302.089,101.742z
			"/>
	</g>
	<path display="inline" fill="#464646" d="M89.981,157.077c-7.969-18.002-12.1-36.875-12.1-55.616
		c0-17.116,3.983-34.083,11.51-49.873C92.194,45.834,89.981,42,83.635,42h-3.688c-4.427,0-7.525,1.48-9.739,5.464
		c-8.324,14.342-13.422,30.022-14.625,46.454L39.507,67.125C37.294,63.288,34.342,62,29.769,62h-11.51
		C12.946,62,10,64.136,10,69.448v89.272c0,5.312,2.946,8.278,8.259,8.278h9.591c5.312,0,8.15-2.967,8.15-8.278V117.7
		c0-6.642-1.215-18.7-1.215-18.7h0.296c0,0,4.722,11.416,8.854,18.352c2.462,4.123,4.969,8.362,7.424,12.49
		c4.302,7.237,8.887,14.436,12.894,21.836c1.072,1.98,2.178,3.969,3.443,5.832c1.448,2.133,3.256,5.506,5.326,7.039
		c3.765,2.791,11.114,3.547,15.311,1.314C91.688,164.081,91.291,160.035,89.981,157.077z"/>
	<circle display="inline" fill="#464646" cx="149.605" cy="119.05" r="11.922"/>
	<circle display="inline" fill="#464646" cx="239.002" cy="119.05" r="11.922"/>
	<path display="inline" fill="#464646" d="M346.641,87.799c24.053,0,43.235,16.083,43.235,39.989
		c0,23.757-19.183,39.545-43.087,39.545c-23.905,0-43.088-15.788-43.088-39.545C303.701,103.882,322.884,87.799,346.641,87.799z
		 M346.789,146.084c9.296,0,17.264-6.936,17.264-18.296c0-11.513-7.968-18.741-17.264-18.741c-9.297,0-17.266,7.229-17.266,18.741
		C329.523,139.148,337.492,146.084,346.789,146.084z"/>
</g>
<g display="none">
	<g display="inline">
		<path fill="#333333" d="M138.651,76.17c24.183,0,43.468,16.171,43.468,40.205c0,23.885-19.285,39.76-43.32,39.76
			c-24.033,0-43.32-15.875-43.32-39.76C95.479,92.341,114.766,76.17,138.651,76.17z M138.799,134.771
			c9.347,0,17.358-6.973,17.358-18.396c0-11.573-8.011-18.842-17.358-18.842c-9.346,0-17.357,7.269-17.357,18.842
			C121.442,127.798,129.453,134.771,138.799,134.771z"/>
		<circle fill="#333333" cx="145.13" cy="120.275" r="11.987"/>
	</g>
	<g display="inline">
		<path fill="#333333" d="M245.438,76.17c24.186,0,43.471,16.171,43.471,40.205c0,23.885-19.285,39.76-43.318,39.76
			c-24.036,0-43.321-15.875-43.321-39.76C202.269,92.341,221.554,76.17,245.438,76.17z M245.59,134.771
			c9.346,0,17.356-6.973,17.356-18.396c0-11.573-8.011-18.842-17.356-18.842c-9.349,0-17.358,7.269-17.358,18.842
			C228.231,127.798,236.241,134.771,245.59,134.771z"/>
		<circle fill="#333333" cx="251.918" cy="120.275" r="11.986"/>
	</g>
	<path display="inline" fill="#333333" d="M95.564,158.365c-7.604-18.402-11.711-37.474-11.711-56.332
		c0-16.882,3.803-33.96,10.95-49.93C98.15,45.108,95.564,40.5,87.656,40.5h-4.411c-5.475,0-9.277,1.611-12.015,6.479
		c-8.233,14.407-13.418,29.905-14.822,46.153L39.855,65.161c-2.282-3.955-5.323-5.661-10.038-5.661H17.955
		c-5.475,0-8.455,2.852-8.455,8.328v92.011c0,5.476,2.98,7.661,8.455,7.661h9.886c5.475,0,7.659-2.186,7.659-7.661V117.56
		c0-6.844-0.511-19.06-0.511-19.06h0.304c0,0,4.867,11.66,9.125,18.808l26.919,45.143c0.064,0.109,0.131,0.276,0.195,0.384
		c0.153,0.272,0.304,1.006,0.458,1.276c2.434,4.26,5.78,6.39,11.255,6.39h5.019C95.869,170.5,98.606,165.361,95.564,158.365z"/>
	<g display="inline">
		<path fill="#323232" d="M349.844,89.355c24.182,0,43.469,16.171,43.469,40.205c0,23.886-19.287,39.76-43.321,39.76
			c-24.033,0-43.32-15.874-43.32-39.76C306.671,105.526,325.958,89.355,349.844,89.355z M349.991,147.956
			c9.347,0,17.358-6.973,17.358-18.396c0-11.571-8.012-18.841-17.358-18.841s-17.356,7.27-17.356,18.841
			C332.635,140.983,340.645,147.956,349.991,147.956z"/>
		<g>
			<g>
				<path fill="#323232" d="M302.749,101.92c0-16.88-3.651-34.066-10.95-50.036c-3.347-6.996-1.065-11.709,6.539-11.709h5.02
					c5.475,0,9.275,1.825,12.014,6.691c9.886,17.033,15.209,35.739,15.209,55.206c0,22.965-5.626,43.648-15.36,60.986
					c-2.738,4.714-6.388,6.69-11.711,6.69h-5.02c-7.756,0-10.188-4.865-6.994-12.316
					C298.641,139.334,302.749,120.476,302.749,101.92z"/>
			</g>
		</g>
	</g>
</g>
<g>
	<g>
		<path fill="#333333" d="M142.09,87.346c24.832,0,44.633,16.601,44.633,41.276c0,24.524-19.801,40.828-44.481,40.828
			c-24.676,0-44.481-16.304-44.481-40.828C97.761,103.946,117.565,87.346,142.09,87.346z M142.242,147.512
			c9.597,0,17.823-7.162,17.823-18.89c0-11.885-8.226-19.344-17.823-19.344c-9.596,0-17.824,7.459-17.824,19.344
			C124.417,140.35,132.646,147.512,142.242,147.512z"/>
		<path fill="#333333" d="M161.046,132.627c0,6.799-5.507,12.311-12.305,12.311c-6.793,0-12.306-5.512-12.306-12.311
			c0-6.803,5.513-12.305,12.306-12.305C155.539,120.322,161.046,125.824,161.046,132.627z"/>
	</g>
	<g>
		<path fill="#333333" d="M239.276,87.346c24.826,0,44.631,16.601,44.631,41.276c0,24.524-19.805,40.828-44.48,40.828
			c-24.673,0-44.479-16.304-44.479-40.828C194.948,103.946,214.754,87.346,239.276,87.346z M239.427,147.512
			c9.599,0,17.82-7.162,17.82-18.89c0-11.885-8.222-19.344-17.82-19.344c-9.598,0-17.821,7.459-17.821,19.344
			C221.605,140.35,229.829,147.512,239.427,147.512z"/>
		<path fill="#333333" d="M258.237,132.627c0,6.799-5.516,12.311-12.31,12.311c-6.8,0-12.308-5.512-12.308-12.311
			c0-6.803,5.508-12.305,12.308-12.305C252.722,120.322,258.237,125.824,258.237,132.627z"/>
	</g>
	<path fill="#333333" d="M91.618,157.66c-7.807-18.891-12.024-37.674-12.024-57.03c0-17.34,3.906-34.846,11.245-51.246
		C94.271,42.203,91.618,37.5,83.5,37.5h-4.53c-5.624,0-9.524,2.033-12.336,7.029c-8.456,14.794-13.777,30.895-15.219,47.576
		L34.418,62.847c-2.343-4.052-5.461-6.347-10.306-6.347H11.93c-5.623,0-9.43,4.191-9.43,9.814v94.484
		c0,5.609,3.807,7.702,9.43,7.702h10.153c5.62,0,4.417-2.093,4.417-7.702v-43.421c0-7.028,2.922-16.877,2.922-16.877h0.311
		c0,0,4.999,10.625,9.369,17.963l27.64,45.684c0.066,0.107,0.137-0.058,0.201,0.052c0.158,0.287,0.313-0.743,0.471-0.475
		c2.501,4.381,5.933,4.776,11.557,4.776h5.151C91.929,168.5,94.739,164.854,91.618,157.66z"/>
	<g>
		<path fill="#323232" d="M352.703,88.417c24.834,0,44.636,16.602,44.636,41.277c0,24.53-19.802,40.833-44.478,40.833
			c-24.683,0-44.488-16.303-44.488-40.833C308.373,105.019,328.179,88.417,352.703,88.417z M352.861,148.584
			c9.591,0,17.823-7.163,17.823-18.89c0-11.873-8.232-19.34-17.823-19.34c-9.602,0-17.825,7.467-17.825,19.34
			C335.036,141.421,343.26,148.584,352.861,148.584z"/>
		<g>
			<g>
				<path fill="#323232" d="M304.348,101.324c0-17.344-3.744-34.979-11.239-51.379c-3.438-7.187-1.096-12.024,6.713-12.024h5.154
					c5.616,0,9.522,1.875,12.334,6.87c10.153,17.489,15.618,36.696,15.618,56.68c0,23.587-5.777,44.818-15.777,62.625
					c-2.808,4.837-6.559,6.869-12.021,6.869h-5.154c-7.963,0-10.457-4.995-7.182-12.651
					C300.135,139.742,304.348,120.372,304.348,101.324z"/>
			</g>
		</g>
	</g>
</g>
</svg>
