<?xml version="1.0" encoding="utf-8"?>
<!-- Generator: Adobe Illustrator 16.0.0, SVG Export Plug-In . SVG Version: 6.00 Build 0)  -->
<!DOCTYPE svg PUBLIC "-//W3C//DTD SVG 1.1//EN" "http://www.w3.org/Graphics/SVG/1.1/DTD/svg11.dtd">
<svg version="1.1" id="Layer_1" xmlns="http://www.w3.org/2000/svg" xmlns:xlink="http://www.w3.org/1999/xlink" x="0px" y="0px"
	 width="400px" height="200px" viewBox="0 0 400 200" enable-background="new 0 0 400 200" xml:space="preserve">
<g display="none">
	<g display="inline">
		<path fill="#333333" d="M142.09,87.346c24.832,0,44.633,16.601,44.633,41.276c0,24.524-19.801,40.828-44.479,40.828
			c-24.678,0-44.481-16.304-44.481-40.828C97.761,103.945,117.565,87.346,142.09,87.346z M142.242,147.512
			c9.597,0,17.821-7.162,17.821-18.89c0-11.886-8.226-19.345-17.821-19.345c-9.597,0-17.824,7.459-17.824,19.345
			C124.417,140.35,132.646,147.512,142.242,147.512z"/>
		<path fill="#333333" d="M161.046,132.627c0,6.799-5.507,12.311-12.305,12.311c-6.795,0-12.308-5.512-12.308-12.311
			c0-6.803,5.513-12.305,12.308-12.305C155.539,120.322,161.046,125.824,161.046,132.627z"/>
	</g>
	<g display="inline">
		<path fill="#333333" d="M239.275,87.346c24.826,0,44.632,16.601,44.632,41.276c0,24.524-19.806,40.828-44.479,40.828
			s-44.479-16.304-44.479-40.828C194.948,103.945,214.754,87.346,239.275,87.346z M239.427,147.512c9.599,0,17.82-7.162,17.82-18.89
			c0-11.886-8.224-19.345-17.82-19.345s-17.821,7.459-17.821,19.345C221.605,140.35,229.829,147.512,239.427,147.512z"/>
		<path fill="#333333" d="M258.236,132.627c0,6.799-5.516,12.311-12.31,12.311c-6.8,0-12.308-5.512-12.308-12.311
			c0-6.803,5.508-12.305,12.308-12.305C252.723,120.322,258.236,125.824,258.236,132.627z"/>
	</g>
	<path display="inline" fill="#333333" d="M67.414,163.725c2.501,4.381,5.933,4.775,11.557,4.775h5.151
		c7.807,0,10.615-3.646,7.496-10.84c-7.809-18.891-12.024-37.674-12.024-57.03c0-17.34,3.906-34.846,11.245-51.246
		C94.271,42.203,91.618,37.5,83.5,37.5h-4.53c-5.624,0-9.524,2.033-12.336,7.029c-8.456,14.794-13.777,30.895-15.219,47.576
		L34.418,62.847c-2.343-4.052-5.461-6.347-10.308-6.347H11.93c-5.623,0-9.43,4.191-9.43,9.814v94.484
		c0,5.608,3.807,7.702,9.43,7.702h10.153c5.62,0,4.417-2.094,4.417-7.702v-43.421c0-7.027,2.922-16.877,2.922-16.877h0.311
		c0,0,4.999,10.625,9.369,17.963"/>
	<g display="inline">
		<path fill="#323232" d="M352.702,88.417c24.834,0,44.637,16.603,44.637,41.276c0,24.531-19.803,40.834-44.479,40.834
			c-24.684,0-44.487-16.303-44.487-40.834C308.372,105.02,328.18,88.417,352.702,88.417z M352.861,148.584
			c9.592,0,17.822-7.163,17.822-18.891c0-11.873-8.23-19.34-17.822-19.34c-9.603,0-17.824,7.467-17.824,19.34
			C335.035,141.421,343.26,148.584,352.861,148.584z"/>
		<g>
			<g>
				<path fill="#323232" d="M304.348,101.324c0-17.344-3.744-34.979-11.238-51.379c-3.438-7.187-1.096-12.024,6.713-12.024h5.154
					c5.615,0,9.521,1.875,12.334,6.87c10.152,17.489,15.617,36.696,15.617,56.68c0,23.588-5.777,44.818-15.777,62.625
					c-2.808,4.838-6.559,6.869-12.021,6.869h-5.153c-7.963,0-10.457-4.994-7.183-12.65
					C300.135,139.742,304.348,120.372,304.348,101.324z"/>
			</g>
		</g>
	</g>
</g>
<g>
	<g>
		<path fill="#333333" d="M137.976,85.753c24.918,0,44.789,16.663,44.789,41.429c0,24.6-19.871,40.95-44.634,40.95
			c-24.765,0-44.636-16.352-44.636-40.95C93.494,102.416,113.365,85.753,137.976,85.753z M138.13,146.135
			c9.628,0,17.883-7.184,17.883-18.953c0-11.928-8.254-19.425-17.883-19.425c-9.63,0-17.888,7.497-17.888,19.425
			C120.242,138.951,128.5,146.135,138.13,146.135z"/>
	</g>
	<g>
		<path fill="#333333" d="M241.192,85.753c24.918,0,44.785,16.663,44.785,41.429c0,24.6-19.867,40.95-44.637,40.95
			c-24.76,0-44.633-16.352-44.633-40.95C196.707,102.416,216.58,85.753,241.192,85.753z M241.34,146.135
			c9.631,0,17.891-7.184,17.891-18.953c0-11.928-8.26-19.425-17.891-19.425c-9.627,0-17.887,7.497-17.887,19.425
			C223.453,138.951,231.713,146.135,241.34,146.135z"/>
	</g>
	<path fill="#333333" d="M65.886,163.005c2.511,4.402,5.955,6.495,11.601,6.495h5.165c7.833,0,10.661-4.934,7.522-12.136
		c-7.834-18.976-12.066-38.651-12.066-58.088c0-17.39,3.918-34.461,11.286-50.903c3.443-7.224,0.78-10.873-7.368-10.873h-4.539
		c-5.646,0-9.562,0.172-12.385,5.194C56.624,57.528,51.277,71.868,49.83,88.599l-17.059-30.42
		c-2.347-4.086-5.479-8.678-10.336-8.678H10.215C4.572,49.5,2.5,58.237,2.5,63.874v94.8c0,5.639,2.07,10.826,7.714,10.826h10.183
		c5.644,0,8.291-3.943,8.291-9.566l-0.058-63.12c0,0,12.492,22.325,16.877,29.681L65.886,163.005z"/>
	<g>
		<path fill="#323232" d="M352.168,88.148c24.92,0,44.784,16.67,44.784,41.436c0,24.609-19.864,40.963-44.639,40.963
			c-24.758,0-44.631-16.354-44.631-40.963C307.684,104.818,327.557,88.148,352.168,88.148z M352.315,148.529
			c9.631,0,17.887-7.185,17.887-18.945c0-11.936-8.256-19.428-17.887-19.428c-9.621,0-17.869,7.492-17.869,19.428
			C334.446,141.346,342.694,148.529,352.315,148.529z"/>
		<g>
			<g>
				<path fill="#323232" d="M303.645,101.098c0-17.393-3.762-35.098-11.289-51.556c-3.438-7.195-1.092-12.067,6.74-12.067h5.182
					c5.631,0,9.551,1.895,12.371,6.899c10.187,17.547,15.668,36.819,15.668,56.87c0,23.672-5.789,45-15.822,62.859
					c-2.819,4.85-6.586,6.887-12.065,6.887h-5.172c-7.992,0-10.498-5.01-7.207-12.699
					C299.41,139.643,303.645,120.215,303.645,101.098z"/>
			</g>
		</g>
	</g>
</g>
</svg>
